<?xml version="1.0" standalone="no"?>
<!DOCTYPE svg PUBLIC "-//W3C//DTD SVG 20010904//EN"
 "http://www.w3.org/TR/2001/REC-SVG-20010904/DTD/svg10.dtd">
<svg version="1.0" xmlns="http://www.w3.org/2000/svg"
 width="512.000000pt" height="512.000000pt" viewBox="0 0 512.000000 512.000000"
 preserveAspectRatio="xMidYMid meet">
<metadata>
Created by potrace 1.16, written by Peter Selinger 2001-2019
</metadata>
<g transform="translate(0.000000,512.000000) scale(0.100000,-0.100000)"
fill="#000000" stroke="none">
<path d="M354 5106 c-122 -39 -254 -147 -304 -252 -53 -112 -50 -9 -50 -1871
l0 -1733 85 0 85 0 0 1600 0 1600 2390 0 2390 0 0 -1600 0 -1600 85 0 85 0 -2
1753 -3 1754 -42 85 c-66 132 -171 221 -312 264 -63 20 -4345 19 -4407 0z
m136 -316 l0 -160 -161 0 -162 0 7 42 c20 121 111 227 229 264 91 28 87 35 87
-146z m500 0 l0 -160 -160 0 -160 0 0 160 0 160 160 0 160 0 0 -160z m490 0
l0 -160 -160 0 -160 0 0 160 0 160 160 0 160 0 0 -160z m3281 127 c96 -47 168
-143 185 -245 l7 -42 -1647 0 -1646 0 0 160 0 160 1523 -2 1522 -3 56 -28z"/>
<path d="M2850 3957 c-31 -16 -156 -170 -207 -257 -72 -121 -86 -164 -81 -255
7 -127 66 -218 180 -275 l61 -30 -136 0 c-74 0 -143 -3 -152 -6 -38 -15 -45
-55 -45 -265 l0 -201 -22 5 c-200 47 -234 51 -428 51 -220 0 -322 -17 -494
-78 -251 -90 -432 -267 -453 -446 -4 -35 -11 -53 -22 -57 -46 -13 -135 -50
-205 -84 -276 -136 -436 -345 -436 -569 1 -78 12 -133 43 -197 l22 -48 99 3
c82 2 102 0 120 -15 16 -14 -28 41 -54 67 -10 9 -39 85 -50 129 -47 184 129
393 433 516 l82 33 38 -59 c102 -157 334 -283 606 -330 122 -21 327 -28 437
-15 l61 8 17 -64 c26 -91 73 -206 99 -239 21 -27 25 -28 114 -28 86 -1 91 0
86 19 -3 11 -10 20 -16 20 -6 0 -8 3 -4 6 3 3 -5 23 -18 44 -76 121 -115 273
-122 484 l-6 159 109 -6 c171 -11 329 -61 454 -143 l36 -24 -14 -78 c-17 -95
-10 -300 13 -387 8 -33 17 -67 19 -75 2 -12 23 -16 96 -18 92 -3 93 -3 86 20
-45 156 -49 177 -49 293 0 233 61 380 252 608 35 42 68 76 72 75 13 -5 163
-191 197 -245 89 -139 128 -293 119 -477 -5 -110 -29 -232 -50 -252 -4 -4 -7
-11 -7 -15 0 -12 186 -16 188 -4 1 6 10 43 22 84 27 101 35 263 17 376 -8 50
-12 93 -10 97 10 19 147 90 219 114 88 30 230 54 317 54 l57 0 0 -97 c-1 -203
-35 -356 -115 -518 l-55 -110 92 -3 c65 -2 95 1 104 10 23 24 85 178 111 277
23 86 26 119 31 328 l4 232 -27 27 -26 26 -187 -5 c-226 -6 -329 -28 -491
-109 -58 -28 -106 -47 -108 -42 -10 30 -99 168 -145 225 -132 164 -210 249
-233 255 -39 10 -75 -4 -105 -39 -15 -18 -40 -45 -54 -62 l-25 -30 -1 363 c0
381 -3 410 -45 426 -9 3 -78 6 -152 6 l-136 0 61 30 c159 80 225 255 159 418
-47 115 -222 353 -273 372 -33 13 -44 12 -74 -3z m88 -277 c24 -32 59 -90 78
-127 29 -55 35 -76 31 -107 -14 -100 -125 -162 -218 -123 -46 19 -89 75 -96
124 -4 30 2 52 29 103 34 64 118 189 128 189 3 0 24 -26 48 -59z m192 -1135
l0 -424 -36 -66 c-20 -36 -38 -65 -40 -65 -3 0 -39 18 -80 40 -68 36 -167 71
-281 100 l-43 11 0 414 0 415 240 0 240 0 0 -425z m-885 -10 c44 -8 112 -25
152 -36 l73 -22 0 -163 0 -164 -98 0 c-93 0 -100 -1 -123 -26 -23 -25 -24 -29
-24 -197 l0 -172 -60 -8 c-84 -12 -315 -2 -403 17 -352 76 -561 257 -507 442
70 240 565 405 990 329z"/>
</g>
</svg>
